<?xml version="1.0" encoding="UTF-8" standalone="no"?>
<!-- Created with Inkscape (http://www.inkscape.org/) -->

<svg
   width="484.21384"
   height="413.13086"
   viewBox="0 0 484.21384 413.13086"
   version="1.1"
   id="svg1"
   xml:space="preserve"
   xmlns:xlink="http://www.w3.org/1999/xlink"
   xmlns="http://www.w3.org/2000/svg"
   xmlns:svg="http://www.w3.org/2000/svg"><defs
     id="defs1"><linearGradient
       id="linearGradient10"><stop
         style="stop-color:#ffffff;stop-opacity:1;"
         offset="0"
         id="stop10" /><stop
         style="stop-color:#ffffff;stop-opacity:0;"
         offset="1"
         id="stop11" /></linearGradient><linearGradient
       xlink:href="#linearGradient10"
       id="linearGradient11"
       x1="63.628235"
       y1="426.6221"
       x2="246.68979"
       y2="248.25443"
       gradientUnits="userSpaceOnUse" /></defs><g
     id="layer1"
     transform="translate(0,-98.869141)"><g
       id="text11"
       style="font-size:85.3333px;line-height:1;font-family:'IBM Plex Sans';-inkscape-font-specification:'IBM Plex Sans';fill:none;stroke-width:1.513"
       aria-label="WANING&#10;CRESCENT&#10;MEDIA"><path
         style="font-weight:500;font-family:'Futura PT';-inkscape-font-specification:'Futura PT Medium';text-align:center;text-anchor:middle;fill:#ffffff"
         d="m 153.2912,171.23641 -13.05599,36.09599 h -8.36266 l -19.79733,-56.91731 h 11.776 l 12.71466,38.74132 13.90933,-39.25332 h 6.14399 l 13.14133,39.25332 13.65333,-38.74132 h 11.77599 l -21.07732,56.91731 h -8.36266 z m 83.71204,36.09599 -5.03466,-11.94666 h -22.95466 l -5.03466,11.94666 h -12.032 l 24.49066,-56.91731 h 8.70399 l 23.80799,56.91731 z m -24.49065,-20.99199 h 16.21332 l -8.10666,-20.48 z m 54.18672,20.99199 h -11.09333 v -56.91731 h 7.68 l 34.64532,37.97332 v -37.97332 h 11.09332 v 56.91731 h -7.67999 l -34.64532,-38.05865 z m 55.29597,-56.91731 h 11.09333 v 56.91731 h -11.09333 z m 35.15728,56.91731 h -11.09333 v -56.91731 h 7.67999 l 34.64532,37.97332 v -37.97332 h 11.09333 v 56.91731 h -7.67999 l -34.64532,-38.05865 z m 84.13863,-20.90666 v -9.55733 h 26.11199 v 0.68267 q 0,15.27466 -8.36266,23.55199 -7.50933,7.50933 -20.22399,7.50933 -12.97066,0 -20.65066,-7.68 -8.448,-8.448 -8.448,-21.93066 0,-12.79999 8.36267,-21.16266 8.53333,-8.70399 22.44266,-8.70399 7.50933,0 13.14132,2.98666 6.57067,3.328 10.66667,10.41067 l -9.64267,5.20533 q -2.304,-4.43733 -6.65599,-6.74133 -3.584,-1.792 -8.02133,-1.792 -8.02133,0 -13.14133,5.03466 -5.71733,5.54667 -5.71733,15.01866 0,8.96 5.63199,14.42133 5.03467,4.864 12.62933,4.864 6.656,0 11.17866,-3.41333 4.096,-3.15734 5.376,-8.704 z"
         id="path2" /><path
         style="font-weight:500;font-family:'Futura PT';-inkscape-font-specification:'Futura PT Medium';text-align:center;text-anchor:middle;fill:#ffffff"
         d="m 146.12325,279.0977 v 12.97066 q -6.31466,3.328 -14.07999,3.328 -12.45866,0 -20.82132,-7.936 -9.13067,-8.78933 -9.13067,-21.75999 0,-13.82399 9.13067,-22.27199 8.02133,-7.50933 20.90665,-7.50933 7.50933,0 13.99466,3.49867 v 12.97066 q -5.54666,-6.4 -13.73866,-6.4 -8.36266,0 -13.65332,5.888 -5.20533,5.80266 -5.20533,13.99466 0,8.96 5.80266,14.25066 5.80266,5.20533 13.48266,5.20533 8.02133,0 13.31199,-6.22933 z m 10.24001,-41.89865 h 16.46933 q 9.38666,0 14.50666,4.26667 5.63199,4.77866 5.63199,12.79999 0,8.96 -6.65599,13.39733 -2.56,1.792 -6.22933,2.47466 l 17.74932,23.97866 h -13.82399 l -15.18933,-22.86932 h -1.36533 v 22.86932 h -11.09333 z m 11.09333,9.04533 v 17.15199 h 3.15733 q 1.36533,0 2.64533,-0.17066 1.36534,-0.256 3.49867,-0.93867 2.13333,-0.768 3.41333,-2.64533 1.36533,-1.96267 1.36533,-4.864 0,-2.90133 -1.28,-4.77866 -1.28,-1.96267 -3.41333,-2.64534 -2.13333,-0.768 -3.41333,-0.93866 -1.28,-0.17067 -2.64533,-0.17067 z m 69.46125,-9.04533 v 9.55733 h -20.47999 v 12.71466 h 19.62666 v 9.55733 h -19.62666 v 15.53066 h 20.47999 v 9.55733 h -31.57332 v -56.91731 z m 44.54402,5.376 -5.80267,7.59466 q -3.66933,-4.864 -9.30133,-4.864 -4.096,0 -5.97333,2.048 -1.87733,1.96267 -1.87733,4.608 0,2.304 1.792,3.84 1.36533,1.28 6.82666,3.24267 8.448,2.90133 11.52,5.71733 4.86399,4.352 4.86399,11.94666 0,8.36266 -5.54666,13.56799 -5.46133,5.12 -14.25066,5.12 -12.288,0 -19.62666,-10.75199 l 7.25333,-6.912 q 1.87733,3.84 5.20533,5.71733 3.328,1.87733 6.74133,1.87733 3.84,0 6.31467,-2.13333 2.47466,-2.21867 2.47466,-5.71733 0,-2.98667 -2.21866,-5.12 -2.048,-1.87733 -8.78933,-4.18133 -6.31467,-2.13333 -9.472,-4.94933 -4.52266,-3.92533 -4.52266,-10.58133 0,-6.912 4.69333,-11.776 4.69333,-4.94933 13.56799,-4.94933 9.64266,0 16.128,6.656 z m 53.07733,36.52265 v 12.97066 q -6.31466,3.328 -14.07999,3.328 -12.45866,0 -20.82132,-7.936 -9.13067,-8.78933 -9.13067,-21.75999 0,-13.82399 9.13067,-22.27199 8.02133,-7.50933 20.90665,-7.50933 7.50933,0 13.99466,3.49867 v 12.97066 q -5.54666,-6.4 -13.73866,-6.4 -8.36266,0 -13.65332,5.888 -5.20534,5.80266 -5.20534,13.99466 0,8.96 5.80267,14.25066 5.80266,5.20533 13.48266,5.20533 8.02133,0 13.31199,-6.22933 z m 41.81333,-41.89865 v 9.55733 h -20.47999 v 12.71466 h 19.62666 v 9.55733 h -19.62666 v 15.53066 h 20.47999 v 9.55733 H 344.7792 v -56.91731 z m 21.84534,56.91731 h -11.09333 v -56.91731 h 7.68 l 34.64532,37.97332 v -37.97332 h 11.09333 v 56.91731 h -7.68 l -34.64532,-38.05865 z m 86.01597,-47.35998 h -12.79999 v 47.35998 h -11.09333 v -47.35998 h -12.8 v -9.55733 h 36.69332 z"
         id="path3" /><path
         style="font-weight:500;font-family:'Futura PT';-inkscape-font-specification:'Futura PT Medium';text-align:center;text-anchor:middle;fill:#ffffff"
         d="m 167.54184,380.90033 10.58132,-56.91731 h 8.02133 l 15.104,36.18131 15.78666,-36.18131 h 8.02133 l 9.55733,56.91731 h -11.264 l -5.12,-35.07199 -15.27466,35.07199 h -3.75466 l -14.59199,-35.07199 -5.80267,35.07199 z m 108.71469,-56.91731 v 9.55732 h -20.47999 v 12.71467 h 19.62666 v 9.55733 H 255.77654 V 371.343 h 20.47999 v 9.55733 h -31.57332 v -56.91731 z m 10.75202,0 h 14.848 q 6.74133,0 11.77599,1.19466 5.03467,1.10933 9.38666,4.352 5.20533,3.92533 8.02133,9.89866 2.90134,5.97333 2.90134,13.056 0,14.93332 -11.43467,22.95465 -4.60799,3.24267 -9.38666,4.352 -4.77866,1.10934 -11.43466,1.10934 h -14.67733 z m 11.09333,9.55732 V 371.343 h 3.41333 q 8.704,0 13.90933,-3.75467 3.328,-2.38933 5.20533,-6.4 1.87733,-4.096 1.87733,-8.70399 0,-4.52267 -1.87733,-8.53333 -1.792,-4.096 -5.12,-6.656 -5.03466,-3.75467 -13.99466,-3.75467 z m 46.08,-9.55732 h 11.09333 v 56.91731 h -11.09333 z m 62.80526,56.91731 -5.03466,-11.94667 h -22.95466 l -5.03466,11.94667 h -12.032 l 24.49066,-56.91731 h 8.70399 l 23.80799,56.91731 z m -24.49065,-20.992 h 16.21332 l -8.10666,-20.47999 z"
         id="path4" /></g><path
       id="path1"
       clip-path="none"
       style="fill:url(#linearGradient11);fill-opacity:1;stroke-width:1.5128"
       d="M 53.896484,98.869141 A 256,256 0 0 0 0,256 256,256 0 0 0 256,512 256,256 0 0 0 426.17969,447.24609 C 394.25857,445.45726 362.97933,439.20501 334.12891,426.31445 291.02497,407.05534 251.89687,381.00387 217.51172,349.94531 146.18178,285.5162 80.640515,207.98328 57.033203,113.61523 55.823855,108.78098 54.772576,103.8556 53.896484,98.869141 Z" /></g></svg>
